<?xml version="1.0" encoding="UTF-8"?>
<svg id="Layer_2" data-name="Layer 2" xmlns="http://www.w3.org/2000/svg" viewBox="0 0 426.46 463.37">
  <defs>
    <style>
      .cls-1 {
        fill: #4b3d76;
      }
    </style>
  </defs>
  <path class="cls-1" d="M169.13,457.96c65.67,13.37,134.04-33.33,157.45-92.66,9.24-23.42,13.62-49.38,7.5-73.75-11.44-45.52-63.05-77.46-110.08-68.14,22.7-20.19,51.24-32.9,75.98-50.66,24.74-17.76,46.84-43.65,46.65-73.63-.24-38.27-38.25-68.35-77.07-73.61,11.5,10.21,6.63,32.16-8.16,36.8-33.3,10.46-31.71-31.63-13.73-46.17,21.01-16.98,52.8-20.89,77.63-10.17,33.31,14.37,53.62,50.49,54.12,86.05,.5,35.56-16.51,69.85-40.92,96.24,59.53,14.97,96.71,81.45,86.19,140.59-20.47,115.15-157.23,149.14-255.56,129.1Z"/>
  <path class="cls-1" d="M250.43,5.9c-23.36,3.22-46.23,17.73-62.89,33.23-64.34,59.86-41.49,147.97-45.43,224.91-3.8,74.05-54.88,180.53-142.1,185.7,6.69-.4,17.56,5.4,24.27,6.8,19.64,4.11,40.13,5.44,60.09,2.99,91.84-11.29,131.51-98.25,134.11-179.72,2.02-63.32-20.12-125.74-5.34-187.96,2.78-11.71,25.35-84.31,37.31-85.96Z"/>
</svg>